<svg width="909" height="778" viewBox="0 0 909 778" fill="none" xmlns="http://www.w3.org/2000/svg">
<g clip-path="url(#clip0)">
<path d="M123.571 525.146C176.244 525.146 218.944 438.022 218.944 330.548C218.944 223.074 176.244 135.95 123.571 135.95C70.8985 135.95 28.1988 223.074 28.1988 330.548C28.1988 438.022 70.8985 525.146 123.571 525.146Z" fill="#6C63FF"/>
<path d="M122.696 332.567C127.453 247.859 137.038 190.642 137.135 190.074L135.055 189.722C134.959 190.29 125.356 247.599 120.591 332.416C116.194 410.696 115.133 529.1 135.055 648.629L137.135 648.283C117.248 528.957 118.306 410.732 122.696 332.567Z" fill="#3F3D56"/>
<path d="M208.812 291.084L122.581 337.238L123.576 339.098L209.808 292.944L208.812 291.084Z" fill="#3F3D56"/>
<path d="M32.5434 314.216L31.5483 316.076L117.792 362.207L118.788 360.346L32.5434 314.216Z" fill="#3F3D56"/>
<path d="M784.894 504.917C853.228 504.917 908.623 391.887 908.623 252.458C908.623 113.029 853.228 0 784.894 0C716.56 0 661.164 113.029 661.164 252.458C661.164 391.887 716.56 504.917 784.894 504.917Z" fill="#6C63FF"/>
<path d="M783.391 255.045C789.564 145.133 802.002 70.8927 802.127 70.1554L800.155 69.8214C800.03 70.5592 787.576 144.887 781.396 254.901C775.691 356.439 774.315 510.019 800.154 665.054L802.127 664.726C776.32 509.882 777.694 356.473 783.391 255.045Z" fill="#3F3D56"/>
<path d="M895.653 201.585L783.782 261.462L784.726 263.225L896.597 203.348L895.653 201.585Z" fill="#3F3D56"/>
<path d="M666.627 231.595L665.683 233.358L777.571 293.205L778.514 291.441L666.627 231.595Z" fill="#3F3D56"/>
<path d="M635.82 573.293C661.351 573.293 682.049 531.062 682.049 478.968C682.049 426.874 661.351 384.643 635.82 384.643C610.289 384.643 589.591 426.874 589.591 478.968C589.591 531.062 610.289 573.293 635.82 573.293Z" fill="#E6E6E6"/>
<path d="M635.779 483.032L636.053 483.544L677.851 461.171L676.907 459.408L635.866 481.375C638.137 439.573 642.782 411.512 642.876 410.96L640.904 410.626C640.802 411.229 635.283 444.552 633.324 492.77L591.931 470.615L590.987 472.379L632.785 494.751L633.284 493.818C631.717 533.615 632.595 583.377 640.904 633.228L642.877 632.9C633.818 578.548 633.618 524.297 635.779 483.032Z" fill="#3F3D56"/>
<path d="M870.057 685.766C623.825 607.818 400.548 611.971 256.603 629.181C100.655 647.825 1.69873 685.369 0.717773 685.746L0 683.879C0.98389 683.501 100.173 645.868 256.365 627.194C348.241 616.223 440.939 613.852 533.255 620.111C647.859 627.868 761.127 649.269 870.661 683.859L870.057 685.766Z" fill="#3F3D56"/>
<path d="M316.512 663.737C316.512 663.737 317.202 649.267 331.359 650.949L316.512 663.737Z" fill="#3F3D56"/>
<path d="M312.512 649.967C316.425 649.967 319.597 646.795 319.597 642.881C319.597 638.968 316.425 635.796 312.512 635.796C308.599 635.796 305.427 638.968 305.427 642.881C305.427 646.795 308.599 649.967 312.512 649.967Z" fill="#6C63FF"/>
<path d="M313.359 654.813H311.359V668.813H313.359V654.813Z" fill="#3F3D56"/>
<path d="M574.512 666.737C574.512 666.737 575.202 652.267 589.359 653.949L574.512 666.737Z" fill="#3F3D56"/>
<path d="M570.512 652.967C574.425 652.967 577.597 649.795 577.597 645.881C577.597 641.968 574.425 638.796 570.512 638.796C566.599 638.796 563.427 641.968 563.427 645.881C563.427 649.795 566.599 652.967 570.512 652.967Z" fill="#6C63FF"/>
<path d="M571.359 657.813H569.359V671.813H571.359V657.813Z" fill="#3F3D56"/>
<path d="M149.512 641.737C149.512 641.737 150.202 627.267 164.359 628.949L149.512 641.737Z" fill="#3F3D56"/>
<path d="M145.512 627.967C149.425 627.967 152.597 624.795 152.597 620.881C152.597 616.968 149.425 613.796 145.512 613.796C141.599 613.796 138.427 616.968 138.427 620.881C138.427 624.795 141.599 627.967 145.512 627.967Z" fill="#6C63FF"/>
<path d="M146.359 632.813H144.359V646.813H146.359V632.813Z" fill="#3F3D56"/>
<path d="M258.512 622.737C258.512 622.737 259.202 608.267 273.359 609.949L258.512 622.737Z" fill="#3F3D56"/>
<path d="M254.512 608.967C258.425 608.967 261.597 605.795 261.597 601.881C261.597 597.968 258.425 594.796 254.512 594.796C250.599 594.796 247.427 597.968 247.427 601.881C247.427 605.795 250.599 608.967 254.512 608.967Z" fill="#6C63FF"/>
<path d="M255.359 613.813H253.359V627.813H255.359V613.813Z" fill="#3F3D56"/>
<path d="M531.512 649.737C531.512 649.737 532.202 635.267 546.359 636.949L531.512 649.737Z" fill="#3F3D56"/>
<path d="M527.512 635.967C531.425 635.967 534.597 632.795 534.597 628.881C534.597 624.968 531.425 621.796 527.512 621.796C523.599 621.796 520.427 624.968 520.427 628.881C520.427 632.795 523.599 635.967 527.512 635.967Z" fill="#6C63FF"/>
<path d="M528.359 640.813H526.359V654.813H528.359V640.813Z" fill="#3F3D56"/>
<path d="M839.014 620.729L880.172 681.757L841.852 720.077L836.885 710.142L845.4 690.273C845.4 690.273 843.981 671.822 839.014 666.855C834.046 661.888 812.048 632.083 812.048 632.083L839.014 620.729Z" fill="#FFB8B8"/>
<path d="M786.501 423.454C786.501 423.454 794.306 435.806 777.984 489.028C777.984 489.028 854.114 617.516 842.051 626.031C829.987 634.547 797.342 653.392 788.826 647.715C780.311 642.038 718.377 449.71 718.377 449.71L786.501 423.454Z" fill="#2F2E41"/>
<path d="M872.721 670.758L885.139 683.177C891.526 689.563 895.784 698.788 883.72 706.594C871.657 714.4 829.789 743.495 815.596 734.27C801.404 725.044 832.627 716.529 832.627 716.529C832.627 716.529 837.79 697.386 840.531 701.635C843.271 705.885 843.271 714.4 843.271 714.4L872.721 670.758Z" fill="#2F2E41"/>
<path d="M722.635 654.082C722.635 654.082 699.927 695.95 699.927 700.917C699.927 705.885 701.346 720.077 701.346 720.077L658.059 730.721L643.157 723.625L648.124 710.852C648.124 710.852 675.09 701.627 680.767 683.886C686.444 666.145 692.831 647.695 692.831 647.695L722.635 654.082Z" fill="#FFB8B8"/>
<path d="M748.891 237.532C765.352 237.532 778.695 224.188 778.695 207.727C778.695 191.267 765.352 177.923 748.891 177.923C732.431 177.923 719.087 191.267 719.087 207.727C719.087 224.188 732.431 237.532 748.891 237.532Z" fill="#FFB8B8"/>
<path d="M741.085 233.274L755.315 274.159L786.501 260.24C786.501 260.24 765.213 227.597 765.213 223.339L741.085 233.274Z" fill="#FFB8B8"/>
<path d="M736.828 378.747H774.438C774.438 378.747 801.404 419.905 785.792 463.193C783.401 469.821 781.028 479.107 778.659 490.085C773.211 515.332 767.788 549.531 762.229 580.956C754.422 625.099 746.349 663.769 737.573 664.471C719.833 665.89 685.335 665.653 685.335 658.557C685.335 651.461 708.443 446.162 708.443 446.162L713.41 437.646L714.349 400.554C714.497 394.7 716.934 389.138 721.136 385.061C725.339 380.985 730.972 378.718 736.828 378.747Z" fill="#2F2E41"/>
<path d="M699.572 700.562C699.572 700.562 707.733 714.4 705.604 724.335C703.475 734.27 699.927 732.85 684.315 734.27C668.704 735.689 615.482 735.689 615.482 725.754C615.482 715.819 656.999 702.918 657.174 706.885C657.35 710.852 658.769 718.658 654.511 720.077C650.253 721.496 654.156 720.432 654.156 720.432L699.572 700.562Z" fill="#2F2E41"/>
<path d="M741.091 467.32C741.091 467.32 738.004 517.729 717.415 502.722C696.827 487.715 725.439 460.607 725.439 460.607L741.091 467.32Z" fill="white"/>
<path d="M782.184 400.93C783.173 401.377 784.266 401.545 785.344 401.417C786.422 401.29 787.444 400.871 788.302 400.206C789.548 399.228 790.377 397.816 790.624 396.252C793.6 379.091 797.225 331.518 799.312 307.461C801.931 277.275 788.848 253.896 788.738 253.753L781.027 243.151C780.227 242.044 779.074 241.24 777.758 240.87C776.442 240.501 775.04 240.588 773.78 241.117C773.78 241.117 749.708 266.092 749.62 267.056C749.242 271.197 746.377 280.373 731.444 295.305C715.106 311.644 715.015 325.904 715.377 329.886C715.4 330.147 715.413 330.409 715.413 330.67C715.382 332.457 715.625 334.237 716.133 335.95C722.976 357.525 717.617 383.356 709.011 410.319C708.684 411.537 708.745 412.827 709.184 414.009C709.623 415.191 710.419 416.208 711.462 416.918C713.975 418.628 710.961 416.091 711.858 417.189C717.789 424.457 726.325 414.328 736.088 403.275C739.489 399.424 743.345 395.06 747.888 390.517C754.134 384.27 766.07 398.525 771.62 398.525C775.272 398.569 778.873 399.389 782.184 400.93Z" fill="#575A89"/>
<path d="M785.493 264.761C785.493 264.761 801.082 277.907 792.226 294.957C783.37 312.006 784.547 324.581 784.547 324.581C784.547 324.581 782.189 441.706 754.517 436.015L741.929 470.768L719.196 462.563L732.341 431.91C732.341 431.91 721.812 431.255 724.889 424.081C727.05 419.043 738.692 364.363 745.43 332.259C748.286 318.655 750.261 309.105 750.261 309.105C750.261 309.105 759.218 261.214 785.493 264.761Z" fill="#575A89"/>
<path opacity="0.2" d="M788.763 324.281L779.998 381.79L784.727 320.297L788.763 324.281Z" fill="black"/>
<path d="M716.374 194.522C716.374 194.522 711.363 155.527 752.247 168.314C752.247 168.314 781.446 162.956 791.022 199.48L800.718 237.767L795.993 235.195L793.79 240.01L786.132 241.949L782.856 235.446L781.27 243.343L718.554 249.596C718.554 249.596 746.643 232.984 747.089 203.211L741.738 208.865L716.374 194.522Z" fill="#2F2E41"/>
<path opacity="0.2" d="M763.014 583.199L776.999 490.013L765.625 590.611L763.014 583.199Z" fill="black"/>
<path d="M785.869 184.466C794.579 184.466 801.64 177.406 801.64 168.696C801.64 159.986 794.579 152.926 785.869 152.926C777.16 152.926 770.099 159.986 770.099 168.696C770.099 177.406 777.16 184.466 785.869 184.466Z" fill="#2F2E41"/>
<path d="M769.62 164.835C769.879 160.834 771.653 157.082 774.582 154.344C777.511 151.605 781.373 150.086 785.382 150.096C785.057 150.054 784.734 150.004 784.402 149.983C782.335 149.849 780.261 150.123 778.3 150.791C776.339 151.459 774.528 152.506 772.972 153.874C771.416 155.241 770.145 156.902 769.23 158.761C768.316 160.62 767.777 162.641 767.644 164.708C767.511 166.776 767.787 168.849 768.456 170.81C769.124 172.77 770.173 174.58 771.541 176.136C772.909 177.691 774.571 178.962 776.43 179.875C778.29 180.788 780.311 181.326 782.378 181.458C782.71 181.48 783.037 181.471 783.365 181.472C779.387 180.968 775.751 178.967 773.198 175.876C770.644 172.785 769.364 168.837 769.62 164.835Z" fill="#2F2E41"/>
<path opacity="0.2" d="M740.865 342.202L726.99 416.567L744.974 334.43L740.865 342.202Z" fill="black"/>
<path d="M741.73 229.206L733.643 235.303C725.315 231.111 719.068 221.414 716.798 212.159L725.61 207.712C726.303 217.152 733.004 223.428 741.73 229.206Z" fill="white"/>
<path d="M745.089 209.056H724.939C724.761 209.056 724.59 208.985 724.464 208.859C724.338 208.733 724.267 208.562 724.267 208.384C724.267 208.206 724.338 208.035 724.464 207.909C724.59 207.783 724.761 207.712 724.939 207.712H745.089C745.267 207.712 745.437 207.783 745.563 207.909C745.689 208.035 745.76 208.206 745.76 208.384C745.76 208.562 745.689 208.733 745.563 208.859C745.437 208.985 745.267 209.056 745.089 209.056Z" fill="white"/>
<path d="M741.059 229.206C740.949 229.206 740.841 229.179 740.744 229.127C740.647 229.076 740.564 229.001 740.502 228.911C740.441 228.82 740.403 228.715 740.391 228.606C740.379 228.497 740.395 228.386 740.435 228.285L745.809 214.851C745.841 214.769 745.89 214.694 745.951 214.631C746.013 214.568 746.086 214.517 746.167 214.482C746.248 214.447 746.336 214.429 746.424 214.428C746.512 214.426 746.6 214.443 746.682 214.475C746.764 214.508 746.839 214.557 746.902 214.619C746.965 214.68 747.015 214.754 747.05 214.835C747.085 214.917 747.103 215.004 747.104 215.092C747.105 215.18 747.088 215.268 747.055 215.35L741.682 228.783C741.632 228.908 741.546 229.015 741.435 229.09C741.324 229.165 741.193 229.206 741.059 229.206Z" fill="white"/>
<path d="M746.444 216.992C749.166 216.992 751.372 213.903 751.372 210.093C751.372 206.282 749.166 203.193 746.444 203.193C743.722 203.193 741.516 206.282 741.516 210.093C741.516 213.903 743.722 216.992 746.444 216.992Z" fill="#FFB8B8"/>
<path d="M399.191 230.876L451.677 242.887L473.853 201.062L428.974 183.54L399.191 230.876Z" fill="#2F2E41"/>
<path d="M427.077 456.027C427.077 456.027 410.206 494.691 410.206 505.939C410.206 505.939 416.884 536.518 414.775 544.954L407.394 560.771L391.928 554.444L387.71 512.265L388.413 444.779L427.077 456.027Z" fill="#FFB9B9"/>
<path d="M436.567 224.746C436.567 224.746 437.973 247.944 435.161 254.974C432.349 262.004 445.706 275.361 445.706 275.361L466.796 247.944C466.796 247.944 452.736 233.885 456.251 218.419L436.567 224.746Z" fill="#FFB9B9"/>
<path d="M392.631 385.377C392.631 385.377 372.245 423.338 391.928 420.526C411.611 417.714 404.933 384.323 404.933 384.323" fill="#E6E6E6"/>
<path d="M404.933 384.323L411.611 317.891L411.26 277.47L395.794 280.281V317.539L392.631 385.377" fill="#FFB9B9"/>
<path d="M388.062 549.523L418.29 537.573L421.805 597.326C421.805 597.326 428.132 615.604 426.023 622.633C426.023 622.633 427.429 634.584 423.914 635.287C420.399 635.99 410.557 637.396 409.854 636.693C409.151 635.99 409.151 633.881 409.151 633.881C409.151 633.881 402.121 638.802 401.418 644.426C401.418 644.426 371.893 653.565 371.19 645.129C370.487 636.693 385.953 629.663 385.953 629.663L397.903 611.386L388.062 549.523Z" fill="#2F2E41"/>
<path d="M489.994 456.027C489.994 456.027 473.122 494.691 473.122 505.939C473.122 505.939 479.801 536.518 477.692 544.954L470.31 560.771L454.845 554.444L450.627 512.265L451.33 444.779L489.994 456.027Z" fill="#FFB9B9"/>
<path d="M452.033 549.523L482.261 537.573L485.776 597.326C485.776 597.326 492.103 615.604 489.994 622.633C489.994 622.633 491.4 634.584 487.885 635.287C484.37 635.99 474.528 637.396 473.825 636.693C473.122 635.99 473.122 633.881 473.122 633.881C473.122 633.881 466.093 638.802 465.39 644.426C465.39 644.426 435.864 653.565 435.161 645.129C434.458 636.693 449.924 629.663 449.924 629.663L461.875 611.386L452.033 549.523Z" fill="#2F2E41"/>
<path d="M466.097 208.581C466.095 214.117 464.051 219.458 460.358 223.581C456.664 227.705 451.579 230.322 446.077 230.931C440.574 231.54 435.041 230.099 430.534 226.884C426.027 223.668 422.865 218.904 421.651 213.503C421.281 211.888 421.097 210.237 421.101 208.581C421.105 202.616 423.477 196.898 427.695 192.682C431.914 188.466 437.635 186.097 443.599 186.097C449.563 186.097 455.284 188.466 459.503 192.682C463.721 196.898 466.093 202.616 466.097 208.581Z" fill="#FFB9B9"/>
<path d="M446.409 253.568L463.866 244.503L471.716 250.756C471.716 250.756 490.697 250.053 497.727 258.489C504.757 266.925 508.623 288.366 508.623 288.366C508.623 288.366 485.425 283.445 488.236 303.128L484.019 291.881L480.152 301.371L433.052 317.539L411.963 281.687C411.963 281.687 397.903 277.47 392.982 287.311C392.982 287.311 394.037 251.811 407.745 250.756C416.964 250.047 423.914 250.053 423.914 250.053L431.646 248.647L436.598 246.89L446.409 253.568Z" fill="#575A89"/>
<path d="M476.286 330.545C476.286 330.545 513.192 441.264 502.648 456.73C502.648 456.73 463.281 476.413 384.547 449.7L416.532 325.624C436.18 321.606 456.098 323.246 476.286 330.545Z" fill="#2F2E41"/>
<path d="M476.286 330.545L486.673 294.85C474.213 281.3 484.967 251.253 484.967 251.253L469.933 248.031C469.933 248.031 454.845 288.717 439.379 283.796C423.914 278.876 432.349 247.241 432.349 247.241L418.29 248.647L411.963 273.252L416.532 325.624C435.589 323.989 455.575 325.891 476.286 330.545Z" fill="#575A89"/>
<path d="M494.563 384.323L499.484 317.539L500.89 277.47L485.425 280.281V317.539L482.261 385.377" fill="#FFB9B9"/>
<path d="M482.261 385.377C482.261 385.377 461.875 423.338 481.558 420.526C501.242 417.714 494.563 384.323 494.563 384.323" fill="white"/>
<path d="M508.623 288.366C508.623 288.366 506.124 252.264 485.23 252.389V294.139C485.23 294.139 500.89 284.851 508.623 288.366Z" fill="#575A89"/>
<path d="M450.792 214.386C450.674 214.386 450.557 214.349 450.46 214.28C450.363 214.212 450.29 214.114 450.251 214.002C450.211 213.89 450.208 213.768 450.241 213.654C450.273 213.54 450.341 213.438 450.434 213.364L461.907 204.186C461.966 204.138 462.033 204.103 462.106 204.081C462.178 204.06 462.255 204.053 462.33 204.061C462.405 204.069 462.478 204.092 462.544 204.128C462.611 204.165 462.669 204.214 462.716 204.273C462.764 204.332 462.799 204.4 462.82 204.473C462.841 204.546 462.847 204.622 462.838 204.697C462.83 204.772 462.806 204.845 462.77 204.911C462.733 204.977 462.683 205.035 462.624 205.082L451.151 214.261C451.049 214.342 450.923 214.386 450.792 214.386Z" fill="white"/>
<path d="M451.661 228.153C451.408 228.463 451.156 228.773 450.892 229.06C447.848 230.44 444.535 231.125 441.193 231.064C437.851 231.003 434.565 230.199 431.573 228.709C428.581 227.219 425.959 225.081 423.896 222.451C421.834 219.82 420.384 216.764 419.651 213.503L430.522 211.503L451.661 213.503C446.819 219.4 447.404 221.442 451.661 228.153Z" fill="white"/>
<path d="M430.896 177.091C430.896 177.091 419.269 179.278 416.58 193.779C416.16 196.224 416.083 198.717 416.353 201.183C416.621 203.975 416.232 209.87 410.171 216.812C406.216 221.314 402.531 226.047 399.135 230.984L411.285 234.219L416.713 214.09C419.344 204.331 423.399 195.013 428.745 186.435L428.857 186.256C428.857 186.256 432.892 197.037 443.707 198.515L440.372 194.125C440.372 194.125 453.015 201.434 460.178 203.666C460.996 203.921 461.728 204.394 462.297 205.035C462.865 205.675 463.248 206.458 463.404 207.3C463.56 208.142 463.484 209.011 463.183 209.813C462.882 210.614 462.368 211.319 461.697 211.85C461.646 211.89 461.594 211.93 461.542 211.97C456.273 215.972 445.525 225.52 449.771 234.757C454.017 243.993 449.066 245.677 449.066 245.677L458.197 242.204L462.376 240.414L461.954 243.504L482.356 243.931C482.356 243.931 487.869 243.898 478.076 229.182C478.076 229.182 475.713 223.664 477.653 219.448C479.21 216.255 479.985 212.738 479.914 209.187C479.298 194.35 473.047 164.166 430.896 177.091Z" fill="#2F2E41"/>
<path d="M144.696 599.713C144.696 599.713 144.696 695.175 122.787 720.214C122.787 720.214 118.092 732.734 116.527 737.428C115.652 740.101 114.606 742.715 113.397 745.253V751.513C113.397 751.513 71.1433 746.818 66.4485 735.864L74.2732 726.474C74.2732 726.474 75.8381 724.909 74.2732 720.214C72.7082 715.519 77.4031 715.519 77.4031 715.519L88.3577 690.48L86.7928 587.193L94.6176 444.783L161.91 441.653L144.696 599.713Z" fill="#2F2E41"/>
<path d="M110.267 742.123C110.267 742.123 121.222 774.987 110.267 776.552C99.3124 778.117 3.8505 779.682 5.41545 767.162C6.9804 754.643 38.2794 756.208 38.2794 756.208L71.1433 735.864L110.267 742.123Z" fill="#2F2E41"/>
<path d="M207.294 444.783C207.294 444.783 210.424 465.127 197.904 487.037C185.385 508.946 193.209 582.499 193.209 582.499L304.321 679.525C304.321 679.525 282.411 717.084 274.587 715.519C266.762 713.954 143.131 613.797 143.131 613.797L94.6176 451.043L207.294 444.783Z" fill="#2F2E41"/>
<path d="M302.794 675.379C302.794 675.379 336.416 683.72 331.874 693.81C327.331 703.901 277.547 785.368 267.811 777.344C258.074 769.32 276.152 743.722 276.152 743.722L276.562 705.073L302.794 675.379Z" fill="#2F2E41"/>
<path d="M182.255 153.705C182.267 161.95 179.433 169.946 174.231 176.342C170.118 181.44 164.688 185.315 158.531 187.548C152.373 189.782 145.722 190.288 139.297 189.012C136.08 188.391 132.966 187.319 130.048 185.83C125.413 183.494 121.338 180.182 118.104 176.122C114.87 172.063 112.552 167.351 111.311 162.312C110.612 159.496 110.26 156.606 110.265 153.705C110.265 144.159 114.057 135.003 120.808 128.253C127.558 121.503 136.713 117.71 146.26 117.71C155.806 117.71 164.962 121.503 171.712 128.253C178.462 135.003 182.255 144.159 182.255 153.705Z" fill="#A0616A"/>
<path d="M174.581 166.402L172.989 212.72L142.703 224.686C142.703 224.686 139.733 177.26 135.541 174.631C131.348 172.002 174.581 166.402 174.581 166.402Z" fill="#A0616A"/>
<path d="M135.306 230.385C135.306 230.385 177.56 188.131 188.515 189.696C199.469 191.261 199.469 195.956 199.469 199.086C199.469 202.216 196.339 203.781 199.469 205.346C202.599 206.911 205.729 205.346 205.729 210.041C205.729 214.735 233.898 261.684 224.508 313.327C215.119 364.971 204.164 390.01 208.859 418.179C213.554 446.348 210.424 452.608 210.424 452.608C210.424 452.608 93.0526 461.997 91.4877 451.043C89.9227 440.088 96.1825 446.348 88.3577 438.523C80.533 430.698 83.6629 430.698 83.6629 426.004C83.6629 421.309 118.092 230.385 135.306 230.385Z" fill="#575A89"/>
<path d="M157.216 443.218C157.216 443.218 138.436 488.602 124.352 477.647C110.267 466.692 130.611 429.133 130.611 429.133L157.216 443.218Z" fill="white"/>
<path d="M202.599 233.515C202.599 233.515 239.368 237.724 225.678 305.26C211.989 372.795 158.78 451.043 158.78 451.043L122.787 433.828L169.735 341.496L158.78 283.593C158.78 283.593 152.521 228.82 202.599 233.515Z" fill="#575A89"/>
<path opacity="0.2" d="M170.518 342.279L118.874 428.351L123.569 433.046L170.518 342.279Z" fill="black"/>
<path opacity="0.2" d="M197.853 382.389L156.433 450.26H170.518L197.853 382.389Z" fill="black"/>
<path opacity="0.2" d="M104.29 505.73L102.209 506.523L143.391 614.498L145.471 613.705L104.29 505.73Z" fill="black"/>
<path d="M135.528 238.977C136.758 238.977 137.754 237.981 137.754 236.751C137.754 235.522 136.758 234.525 135.528 234.525C134.299 234.525 133.302 235.522 133.302 236.751C133.302 237.981 134.299 238.977 135.528 238.977Z" fill="#D0CDE1"/>
<path d="M116.605 299.086C116.843 299.086 117.074 299.01 117.266 298.869C117.457 298.727 117.598 298.529 117.668 298.301L136.591 237.08C136.635 236.94 136.65 236.793 136.637 236.648C136.624 236.502 136.582 236.36 136.513 236.231C136.445 236.101 136.352 235.987 136.24 235.893C136.127 235.8 135.997 235.729 135.858 235.686C135.718 235.643 135.571 235.627 135.425 235.641C135.279 235.655 135.138 235.697 135.009 235.765C134.879 235.834 134.765 235.927 134.671 236.04C134.578 236.152 134.508 236.282 134.465 236.422L115.542 297.645C115.491 297.811 115.479 297.987 115.508 298.159C115.538 298.331 115.607 298.493 115.71 298.633C115.813 298.774 115.948 298.888 116.104 298.966C116.259 299.045 116.431 299.086 116.605 299.086V299.086Z" fill="#D0CDE1"/>
<path d="M139.043 181.273L130.048 189.83C120.784 185.168 111.836 172.606 109.311 162.312L121.113 157.366C121.883 167.866 129.337 174.847 139.043 181.273Z" fill="white"/>
<path d="M141.286 161.848C141.25 161.848 141.215 161.846 141.179 161.841L120.261 158.853C120.164 158.839 120.07 158.806 119.986 158.756C119.901 158.706 119.827 158.64 119.768 158.562C119.709 158.483 119.667 158.394 119.642 158.299C119.618 158.204 119.612 158.105 119.626 158.008C119.64 157.911 119.673 157.817 119.723 157.733C119.772 157.648 119.839 157.574 119.917 157.515C119.995 157.457 120.085 157.414 120.18 157.389C120.275 157.365 120.374 157.359 120.471 157.373L141.389 160.361C141.576 160.388 141.747 160.484 141.865 160.631C141.984 160.778 142.043 160.965 142.03 161.153C142.017 161.342 141.933 161.518 141.795 161.647C141.657 161.776 141.475 161.848 141.286 161.848Z" fill="white"/>
<path d="M138.296 181.273C138.165 181.273 138.037 181.239 137.924 181.174C137.811 181.109 137.717 181.016 137.651 180.903C137.585 180.79 137.55 180.662 137.549 180.532C137.548 180.401 137.581 180.273 137.645 180.159L144.576 167.821C144.624 167.735 144.688 167.659 144.766 167.599C144.843 167.538 144.931 167.493 145.026 167.466C145.12 167.439 145.219 167.432 145.317 167.443C145.414 167.455 145.509 167.486 145.594 167.534C145.68 167.582 145.755 167.647 145.816 167.724C145.876 167.802 145.921 167.89 145.948 167.985C145.974 168.079 145.981 168.178 145.969 168.276C145.957 168.373 145.926 168.468 145.878 168.553L138.947 180.892C138.882 181.007 138.787 181.104 138.673 181.171C138.559 181.238 138.428 181.273 138.296 181.273Z" fill="white"/>
<path d="M162.552 175.331C159.638 173.79 156.253 173.473 153.099 172.515C141.815 169.089 134.256 156.333 136.67 144.79C137.115 143.309 137.316 141.766 137.262 140.22C136.84 136.802 133.342 134.596 129.988 133.812C126.633 133.029 123.064 133.143 119.858 131.883C114.908 129.938 111.62 124.851 110.907 119.58C110.194 114.31 111.758 108.934 114.302 104.263L115.513 107.75C117.361 106.186 118.733 104.134 119.472 101.829C120.849 102.06 122.144 102.641 123.232 103.516C124.32 104.391 125.165 105.531 125.687 106.826C127.632 107.973 127.912 103.263 130.06 102.569C130.96 102.278 131.885 102.83 132.742 103.23C137.07 105.249 142.1 103.523 146.743 102.404C154.784 100.475 163.166 100.465 171.212 102.375C176.557 103.65 181.847 105.87 185.672 109.815C188.813 113.055 190.77 117.245 192.437 121.439C196.539 131.763 199.249 142.934 197.895 153.961C196.767 162.984 192.992 171.471 187.047 178.351C183.949 181.92 173.844 194.37 168.303 192.247C161.34 189.58 170.756 179.668 162.552 175.331Z" fill="#2F2E41"/>
<path d="M211 89V208H95V89H211Z" stroke="#F7554B" stroke-width="5"/>
<path d="M814 149V268H698V149H814Z" stroke="#F7554B" stroke-width="5"/>
<path d="M405.654 143.469L408.443 150.43L411.232 143.469H412.691V152H411.566V148.678L411.672 145.092L408.871 152H408.01L405.215 145.109L405.326 148.678V152H404.201V143.469H405.654ZM419.916 149.773H416.342L415.539 152H414.379L417.637 143.469H418.621L421.885 152H420.73L419.916 149.773ZM416.682 148.848H419.582L418.129 144.857L416.682 148.848ZM425.969 148.197C425.004 147.92 424.301 147.58 423.859 147.178C423.422 146.771 423.203 146.271 423.203 145.678C423.203 145.006 423.471 144.451 424.006 144.014C424.545 143.572 425.244 143.352 426.104 143.352C426.689 143.352 427.211 143.465 427.668 143.691C428.129 143.918 428.484 144.23 428.734 144.629C428.988 145.027 429.115 145.463 429.115 145.936H427.984C427.984 145.42 427.82 145.016 427.492 144.723C427.164 144.426 426.701 144.277 426.104 144.277C425.549 144.277 425.115 144.4 424.803 144.646C424.494 144.889 424.34 145.227 424.34 145.66C424.34 146.008 424.486 146.303 424.779 146.545C425.076 146.783 425.578 147.002 426.285 147.201C426.996 147.4 427.551 147.621 427.949 147.863C428.352 148.102 428.648 148.381 428.84 148.701C429.035 149.021 429.133 149.398 429.133 149.832C429.133 150.523 428.863 151.078 428.324 151.496C427.785 151.91 427.064 152.117 426.162 152.117C425.576 152.117 425.029 152.006 424.521 151.783C424.014 151.557 423.621 151.248 423.344 150.857C423.07 150.467 422.934 150.023 422.934 149.527H424.064C424.064 150.043 424.254 150.451 424.633 150.752C425.016 151.049 425.525 151.197 426.162 151.197C426.756 151.197 427.211 151.076 427.527 150.834C427.844 150.592 428.002 150.262 428.002 149.844C428.002 149.426 427.855 149.104 427.562 148.877C427.27 148.646 426.738 148.42 425.969 148.197ZM433.17 148.033L432.127 149.117V152H431.002V143.469H432.127V147.688L435.918 143.469H437.277L433.92 147.236L437.541 152H436.193L433.17 148.033ZM441.924 152V143.469H444.332C445.074 143.469 445.73 143.633 446.301 143.961C446.871 144.289 447.311 144.756 447.619 145.361C447.932 145.967 448.09 146.662 448.094 147.447V147.992C448.094 148.797 447.938 149.502 447.625 150.107C447.316 150.713 446.873 151.178 446.295 151.502C445.721 151.826 445.051 151.992 444.285 152H441.924ZM443.049 144.395V151.08H444.232C445.1 151.08 445.773 150.811 446.254 150.271C446.738 149.732 446.98 148.965 446.98 147.969V147.471C446.98 146.502 446.752 145.75 446.295 145.215C445.842 144.676 445.197 144.402 444.361 144.395H443.049ZM455.043 148.057H451.346V151.08H455.641V152H450.221V143.469H455.582V144.395H451.346V147.137H455.043V148.057ZM463.475 144.395H460.732V152H459.613V144.395H456.877V143.469H463.475V144.395ZM469.984 148.057H466.287V151.08H470.582V152H465.162V143.469H470.523V144.395H466.287V147.137H469.984V148.057ZM478.68 149.293C478.574 150.195 478.24 150.893 477.678 151.385C477.119 151.873 476.375 152.117 475.445 152.117C474.438 152.117 473.629 151.756 473.02 151.033C472.414 150.311 472.111 149.344 472.111 148.133V147.312C472.111 146.52 472.252 145.822 472.533 145.221C472.818 144.619 473.221 144.158 473.74 143.838C474.26 143.514 474.861 143.352 475.545 143.352C476.451 143.352 477.178 143.605 477.725 144.113C478.271 144.617 478.59 145.316 478.68 146.211H477.549C477.451 145.531 477.238 145.039 476.91 144.734C476.586 144.43 476.131 144.277 475.545 144.277C474.826 144.277 474.262 144.543 473.852 145.074C473.445 145.605 473.242 146.361 473.242 147.342V148.168C473.242 149.094 473.436 149.83 473.822 150.377C474.209 150.924 474.75 151.197 475.445 151.197C476.07 151.197 476.549 151.057 476.881 150.775C477.217 150.49 477.439 149.996 477.549 149.293H478.68ZM486.361 144.395H483.619V152H482.5V144.395H479.764V143.469H486.361V144.395ZM492.871 148.057H489.174V151.08H493.469V152H488.049V143.469H493.41V144.395H489.174V147.137H492.871V148.057ZM495.291 152V143.469H497.699C498.441 143.469 499.098 143.633 499.668 143.961C500.238 144.289 500.678 144.756 500.986 145.361C501.299 145.967 501.457 146.662 501.461 147.447V147.992C501.461 148.797 501.305 149.502 500.992 150.107C500.684 150.713 500.24 151.178 499.662 151.502C499.088 151.826 498.418 151.992 497.652 152H495.291ZM496.416 144.395V151.08H497.6C498.467 151.08 499.141 150.811 499.621 150.271C500.105 149.732 500.348 148.965 500.348 147.969V147.471C500.348 146.502 500.119 145.75 499.662 145.215C499.209 144.676 498.564 144.402 497.729 144.395H496.416Z" fill="black"/>
<path d="M492 162V245H402V162H492Z" stroke="#F7554B" stroke-width="5"/>
<path d="M93.6543 66.4688L96.4434 73.4297L99.2324 66.4688H100.691V75H99.5664V71.6777L99.6719 68.0918L96.8711 75H96.0098L93.2148 68.1094L93.3262 71.6777V75H92.2012V66.4688H93.6543ZM107.916 72.7734H104.342L103.539 75H102.379L105.637 66.4688H106.621L109.885 75H108.73L107.916 72.7734ZM104.682 71.8477H107.582L106.129 67.8574L104.682 71.8477ZM113.969 71.1973C113.004 70.9199 112.301 70.5801 111.859 70.1777C111.422 69.7715 111.203 69.2715 111.203 68.6777C111.203 68.0059 111.471 67.4512 112.006 67.0137C112.545 66.5723 113.244 66.3516 114.104 66.3516C114.689 66.3516 115.211 66.4648 115.668 66.6914C116.129 66.918 116.484 67.2305 116.734 67.6289C116.988 68.0273 117.115 68.4629 117.115 68.9355H115.984C115.984 68.4199 115.82 68.0156 115.492 67.7227C115.164 67.4258 114.701 67.2773 114.104 67.2773C113.549 67.2773 113.115 67.4004 112.803 67.6465C112.494 67.8887 112.34 68.2266 112.34 68.6602C112.34 69.0078 112.486 69.3027 112.779 69.5449C113.076 69.7832 113.578 70.002 114.285 70.2012C114.996 70.4004 115.551 70.6211 115.949 70.8633C116.352 71.1016 116.648 71.3809 116.84 71.7012C117.035 72.0215 117.133 72.3984 117.133 72.832C117.133 73.5234 116.863 74.0781 116.324 74.4961C115.785 74.9102 115.064 75.1172 114.162 75.1172C113.576 75.1172 113.029 75.0059 112.521 74.7832C112.014 74.5566 111.621 74.248 111.344 73.8574C111.07 73.4668 110.934 73.0234 110.934 72.5273H112.064C112.064 73.043 112.254 73.4512 112.633 73.752C113.016 74.0488 113.525 74.1973 114.162 74.1973C114.756 74.1973 115.211 74.0762 115.527 73.834C115.844 73.5918 116.002 73.2617 116.002 72.8438C116.002 72.4258 115.855 72.1035 115.562 71.877C115.27 71.6465 114.738 71.4199 113.969 71.1973ZM121.17 71.0332L120.127 72.1172V75H119.002V66.4688H120.127V70.6875L123.918 66.4688H125.277L121.92 70.2363L125.541 75H124.193L121.17 71.0332ZM129.924 75V66.4688H132.332C133.074 66.4688 133.73 66.6328 134.301 66.9609C134.871 67.2891 135.311 67.7559 135.619 68.3613C135.932 68.9668 136.09 69.6621 136.094 70.4473V70.9922C136.094 71.7969 135.938 72.502 135.625 73.1074C135.316 73.7129 134.873 74.1777 134.295 74.502C133.721 74.8262 133.051 74.9922 132.285 75H129.924ZM131.049 67.3945V74.0801H132.232C133.1 74.0801 133.773 73.8105 134.254 73.2715C134.738 72.7324 134.98 71.9648 134.98 70.9688V70.4707C134.98 69.502 134.752 68.75 134.295 68.2148C133.842 67.6758 133.197 67.4023 132.361 67.3945H131.049ZM143.043 71.0566H139.346V74.0801H143.641V75H138.221V66.4688H143.582V67.3945H139.346V70.1367H143.043V71.0566ZM151.475 67.3945H148.732V75H147.613V67.3945H144.877V66.4688H151.475V67.3945ZM157.984 71.0566H154.287V74.0801H158.582V75H153.162V66.4688H158.523V67.3945H154.287V70.1367H157.984V71.0566ZM166.68 72.293C166.574 73.1953 166.24 73.8926 165.678 74.3848C165.119 74.873 164.375 75.1172 163.445 75.1172C162.438 75.1172 161.629 74.7559 161.02 74.0332C160.414 73.3105 160.111 72.3438 160.111 71.1328V70.3125C160.111 69.5195 160.252 68.8223 160.533 68.2207C160.818 67.6191 161.221 67.1582 161.74 66.8379C162.26 66.5137 162.861 66.3516 163.545 66.3516C164.451 66.3516 165.178 66.6055 165.725 67.1133C166.271 67.6172 166.59 68.3164 166.68 69.2109H165.549C165.451 68.5312 165.238 68.0391 164.91 67.7344C164.586 67.4297 164.131 67.2773 163.545 67.2773C162.826 67.2773 162.262 67.543 161.852 68.0742C161.445 68.6055 161.242 69.3613 161.242 70.3418V71.168C161.242 72.0938 161.436 72.8301 161.822 73.377C162.209 73.9238 162.75 74.1973 163.445 74.1973C164.07 74.1973 164.549 74.0566 164.881 73.7754C165.217 73.4902 165.439 72.9961 165.549 72.293H166.68ZM174.361 67.3945H171.619V75H170.5V67.3945H167.764V66.4688H174.361V67.3945ZM180.871 71.0566H177.174V74.0801H181.469V75H176.049V66.4688H181.41V67.3945H177.174V70.1367H180.871V71.0566ZM183.291 75V66.4688H185.699C186.441 66.4688 187.098 66.6328 187.668 66.9609C188.238 67.2891 188.678 67.7559 188.986 68.3613C189.299 68.9668 189.457 69.6621 189.461 70.4473V70.9922C189.461 71.7969 189.305 72.502 188.992 73.1074C188.684 73.7129 188.24 74.1777 187.662 74.502C187.088 74.8262 186.418 74.9922 185.652 75H183.291ZM184.416 67.3945V74.0801H185.6C186.467 74.0801 187.141 73.8105 187.621 73.2715C188.105 72.7324 188.348 71.9648 188.348 70.9688V70.4707C188.348 69.502 188.119 68.75 187.662 68.2148C187.209 67.6758 186.564 67.4023 185.729 67.3945H184.416Z" fill="black"/>
<path d="M405.654 143.469L408.443 150.43L411.232 143.469H412.691V152H411.566V148.678L411.672 145.092L408.871 152H408.01L405.215 145.109L405.326 148.678V152H404.201V143.469H405.654ZM419.916 149.773H416.342L415.539 152H414.379L417.637 143.469H418.621L421.885 152H420.73L419.916 149.773ZM416.682 148.848H419.582L418.129 144.857L416.682 148.848ZM425.969 148.197C425.004 147.92 424.301 147.58 423.859 147.178C423.422 146.771 423.203 146.271 423.203 145.678C423.203 145.006 423.471 144.451 424.006 144.014C424.545 143.572 425.244 143.352 426.104 143.352C426.689 143.352 427.211 143.465 427.668 143.691C428.129 143.918 428.484 144.23 428.734 144.629C428.988 145.027 429.115 145.463 429.115 145.936H427.984C427.984 145.42 427.82 145.016 427.492 144.723C427.164 144.426 426.701 144.277 426.104 144.277C425.549 144.277 425.115 144.4 424.803 144.646C424.494 144.889 424.34 145.227 424.34 145.66C424.34 146.008 424.486 146.303 424.779 146.545C425.076 146.783 425.578 147.002 426.285 147.201C426.996 147.4 427.551 147.621 427.949 147.863C428.352 148.102 428.648 148.381 428.84 148.701C429.035 149.021 429.133 149.398 429.133 149.832C429.133 150.523 428.863 151.078 428.324 151.496C427.785 151.91 427.064 152.117 426.162 152.117C425.576 152.117 425.029 152.006 424.521 151.783C424.014 151.557 423.621 151.248 423.344 150.857C423.07 150.467 422.934 150.023 422.934 149.527H424.064C424.064 150.043 424.254 150.451 424.633 150.752C425.016 151.049 425.525 151.197 426.162 151.197C426.756 151.197 427.211 151.076 427.527 150.834C427.844 150.592 428.002 150.262 428.002 149.844C428.002 149.426 427.855 149.104 427.562 148.877C427.27 148.646 426.738 148.42 425.969 148.197ZM433.17 148.033L432.127 149.117V152H431.002V143.469H432.127V147.688L435.918 143.469H437.277L433.92 147.236L437.541 152H436.193L433.17 148.033ZM441.924 152V143.469H444.332C445.074 143.469 445.73 143.633 446.301 143.961C446.871 144.289 447.311 144.756 447.619 145.361C447.932 145.967 448.09 146.662 448.094 147.447V147.992C448.094 148.797 447.938 149.502 447.625 150.107C447.316 150.713 446.873 151.178 446.295 151.502C445.721 151.826 445.051 151.992 444.285 152H441.924ZM443.049 144.395V151.08H444.232C445.1 151.08 445.773 150.811 446.254 150.271C446.738 149.732 446.98 148.965 446.98 147.969V147.471C446.98 146.502 446.752 145.75 446.295 145.215C445.842 144.676 445.197 144.402 444.361 144.395H443.049ZM455.043 148.057H451.346V151.08H455.641V152H450.221V143.469H455.582V144.395H451.346V147.137H455.043V148.057ZM463.475 144.395H460.732V152H459.613V144.395H456.877V143.469H463.475V144.395ZM469.984 148.057H466.287V151.08H470.582V152H465.162V143.469H470.523V144.395H466.287V147.137H469.984V148.057ZM478.68 149.293C478.574 150.195 478.24 150.893 477.678 151.385C477.119 151.873 476.375 152.117 475.445 152.117C474.438 152.117 473.629 151.756 473.02 151.033C472.414 150.311 472.111 149.344 472.111 148.133V147.312C472.111 146.52 472.252 145.822 472.533 145.221C472.818 144.619 473.221 144.158 473.74 143.838C474.26 143.514 474.861 143.352 475.545 143.352C476.451 143.352 477.178 143.605 477.725 144.113C478.271 144.617 478.59 145.316 478.68 146.211H477.549C477.451 145.531 477.238 145.039 476.91 144.734C476.586 144.43 476.131 144.277 475.545 144.277C474.826 144.277 474.262 144.543 473.852 145.074C473.445 145.605 473.242 146.361 473.242 147.342V148.168C473.242 149.094 473.436 149.83 473.822 150.377C474.209 150.924 474.75 151.197 475.445 151.197C476.07 151.197 476.549 151.057 476.881 150.775C477.217 150.49 477.439 149.996 477.549 149.293H478.68ZM486.361 144.395H483.619V152H482.5V144.395H479.764V143.469H486.361V144.395ZM492.871 148.057H489.174V151.08H493.469V152H488.049V143.469H493.41V144.395H489.174V147.137H492.871V148.057ZM495.291 152V143.469H497.699C498.441 143.469 499.098 143.633 499.668 143.961C500.238 144.289 500.678 144.756 500.986 145.361C501.299 145.967 501.457 146.662 501.461 147.447V147.992C501.461 148.797 501.305 149.502 500.992 150.107C500.684 150.713 500.24 151.178 499.662 151.502C499.088 151.826 498.418 151.992 497.652 152H495.291ZM496.416 144.395V151.08H497.6C498.467 151.08 499.141 150.811 499.621 150.271C500.105 149.732 500.348 148.965 500.348 147.969V147.471C500.348 146.502 500.119 145.75 499.662 145.215C499.209 144.676 498.564 144.402 497.729 144.395H496.416Z" fill="black"/>
<path d="M700.654 129.469L703.443 136.43L706.232 129.469H707.691V138H706.566V134.678L706.672 131.092L703.871 138H703.01L700.215 131.109L700.326 134.678V138H699.201V129.469H700.654ZM714.916 135.773H711.342L710.539 138H709.379L712.637 129.469H713.621L716.885 138H715.73L714.916 135.773ZM711.682 134.848H714.582L713.129 130.857L711.682 134.848ZM720.969 134.197C720.004 133.92 719.301 133.58 718.859 133.178C718.422 132.771 718.203 132.271 718.203 131.678C718.203 131.006 718.471 130.451 719.006 130.014C719.545 129.572 720.244 129.352 721.104 129.352C721.689 129.352 722.211 129.465 722.668 129.691C723.129 129.918 723.484 130.23 723.734 130.629C723.988 131.027 724.115 131.463 724.115 131.936H722.984C722.984 131.42 722.82 131.016 722.492 130.723C722.164 130.426 721.701 130.277 721.104 130.277C720.549 130.277 720.115 130.4 719.803 130.646C719.494 130.889 719.34 131.227 719.34 131.66C719.34 132.008 719.486 132.303 719.779 132.545C720.076 132.783 720.578 133.002 721.285 133.201C721.996 133.4 722.551 133.621 722.949 133.863C723.352 134.102 723.648 134.381 723.84 134.701C724.035 135.021 724.133 135.398 724.133 135.832C724.133 136.523 723.863 137.078 723.324 137.496C722.785 137.91 722.064 138.117 721.162 138.117C720.576 138.117 720.029 138.006 719.521 137.783C719.014 137.557 718.621 137.248 718.344 136.857C718.07 136.467 717.934 136.023 717.934 135.527H719.064C719.064 136.043 719.254 136.451 719.633 136.752C720.016 137.049 720.525 137.197 721.162 137.197C721.756 137.197 722.211 137.076 722.527 136.834C722.844 136.592 723.002 136.262 723.002 135.844C723.002 135.426 722.855 135.104 722.562 134.877C722.27 134.646 721.738 134.42 720.969 134.197ZM728.17 134.033L727.127 135.117V138H726.002V129.469H727.127V133.688L730.918 129.469H732.277L728.92 133.236L732.541 138H731.193L728.17 134.033ZM736.924 138V129.469H739.332C740.074 129.469 740.73 129.633 741.301 129.961C741.871 130.289 742.311 130.756 742.619 131.361C742.932 131.967 743.09 132.662 743.094 133.447V133.992C743.094 134.797 742.938 135.502 742.625 136.107C742.316 136.713 741.873 137.178 741.295 137.502C740.721 137.826 740.051 137.992 739.285 138H736.924ZM738.049 130.395V137.08H739.232C740.1 137.08 740.773 136.811 741.254 136.271C741.738 135.732 741.98 134.965 741.98 133.969V133.471C741.98 132.502 741.752 131.75 741.295 131.215C740.842 130.676 740.197 130.402 739.361 130.395H738.049ZM750.043 134.057H746.346V137.08H750.641V138H745.221V129.469H750.582V130.395H746.346V133.137H750.043V134.057ZM758.475 130.395H755.732V138H754.613V130.395H751.877V129.469H758.475V130.395ZM764.984 134.057H761.287V137.08H765.582V138H760.162V129.469H765.523V130.395H761.287V133.137H764.984V134.057ZM773.68 135.293C773.574 136.195 773.24 136.893 772.678 137.385C772.119 137.873 771.375 138.117 770.445 138.117C769.438 138.117 768.629 137.756 768.02 137.033C767.414 136.311 767.111 135.344 767.111 134.133V133.312C767.111 132.52 767.252 131.822 767.533 131.221C767.818 130.619 768.221 130.158 768.74 129.838C769.26 129.514 769.861 129.352 770.545 129.352C771.451 129.352 772.178 129.605 772.725 130.113C773.271 130.617 773.59 131.316 773.68 132.211H772.549C772.451 131.531 772.238 131.039 771.91 130.734C771.586 130.43 771.131 130.277 770.545 130.277C769.826 130.277 769.262 130.543 768.852 131.074C768.445 131.605 768.242 132.361 768.242 133.342V134.168C768.242 135.094 768.436 135.83 768.822 136.377C769.209 136.924 769.75 137.197 770.445 137.197C771.07 137.197 771.549 137.057 771.881 136.775C772.217 136.49 772.439 135.996 772.549 135.293H773.68ZM781.361 130.395H778.619V138H777.5V130.395H774.764V129.469H781.361V130.395ZM787.871 134.057H784.174V137.08H788.469V138H783.049V129.469H788.41V130.395H784.174V133.137H787.871V134.057ZM790.291 138V129.469H792.699C793.441 129.469 794.098 129.633 794.668 129.961C795.238 130.289 795.678 130.756 795.986 131.361C796.299 131.967 796.457 132.662 796.461 133.447V133.992C796.461 134.797 796.305 135.502 795.992 136.107C795.684 136.713 795.24 137.178 794.662 137.502C794.088 137.826 793.418 137.992 792.652 138H790.291ZM791.416 130.395V137.08H792.6C793.467 137.08 794.141 136.811 794.621 136.271C795.105 135.732 795.348 134.965 795.348 133.969V133.471C795.348 132.502 795.119 131.75 794.662 131.215C794.209 130.676 793.564 130.402 792.729 130.395H791.416Z" fill="black"/>
</g>
<defs>
<clipPath id="clip0">
<rect width="908.623" height="777.899" fill="white"/>
</clipPath>
</defs>
</svg>
