<svg width="1075" height="682" viewBox="0 0 1075 682" fill="none" xmlns="http://www.w3.org/2000/svg">
<path fill-rule="evenodd" clip-rule="evenodd" d="M0.386658 0.682922C47.7313 58.4419 168.626 216.778 253.45 392.056C279.926 446.765 319.878 487.306 349.622 503.042C379.356 518.773 398.963 509.751 433.655 503.042C459.257 498.091 486.379 489.253 515.365 479.808C525.682 476.447 575.196 278.368 586 275C627.138 262.177 632.912 445.043 681.975 442.55C760.544 438.559 842.326 477.467 912.591 527.643C982.868 577.828 1041.7 639.341 1074.39 680.69L1073.61 681.31C1040.97 640.024 525.19 142.622 455 92.5C384.798 42.3686 303.246 3.61865 225.016 7.59247C176.079 10.0783 588.448 457.781 547.336 470.595C536.566 473.952 526.034 477.384 515.728 480.742C486.721 490.194 585.668 650.036 560 655C525.192 661.732 420.015 527.317 390 511.438C699.046 70.9832 279.074 447.299 252.55 392.492C167.774 217.315 87 708 0.386658 680.69V0.682922Z" fill="black"/>
</svg>
